<mxfile host="app.diagrams.net" modified="2024-05-20T12:49:29.735Z" agent="Mozilla/5.0 (Windows NT 10.0; Win64; x64) AppleWebKit/537.36 (KHTML, like Gecko) Chrome/125.0.0.0 Safari/537.36" etag="PXFrwRjAAd_zyxKBvQo5" version="24.4.4" type="github">
  <diagram name="Seite-1" id="FDUMfH4OtruUSYn-kUDx">
    <mxGraphModel dx="1018" dy="515" grid="1" gridSize="10" guides="1" tooltips="1" connect="1" arrows="1" fold="1" page="1" pageScale="1" pageWidth="840" pageHeight="1000" math="0" shadow="0">
      <root>
        <mxCell id="0" />
        <mxCell id="1" parent="0" />
        <mxCell id="HdkrcDW3gAct7X6Tysw3-172" value="" style="fontStyle=0;dashed=1;html=1;whiteSpace=wrap;fontFamily=Helvetica;fontSize=11;fontColor=default;labelBackgroundColor=none;textOpacity=0;fillColor=none;movable=1;resizable=1;rotatable=1;deletable=1;editable=1;locked=0;connectable=1;" parent="1" vertex="1">
          <mxGeometry x="60" y="170" width="710" height="340" as="geometry" />
        </mxCell>
        <mxCell id="H5eGW4Clu2Ia-MZKpD2z-11" value="mehr&amp;nbsp;&lt;div&gt;Schichten?&lt;/div&gt;" style="text;html=1;align=center;verticalAlign=middle;resizable=0;points=[];autosize=1;strokeColor=none;fillColor=none;fontFamily=Helvetica;fontSize=11;fontColor=default;labelBackgroundColor=default;" vertex="1" parent="1">
          <mxGeometry x="523" y="400" width="80" height="40" as="geometry" />
        </mxCell>
        <mxCell id="HdkrcDW3gAct7X6Tysw3-174" value="" style="group" parent="1" vertex="1" connectable="0">
          <mxGeometry x="190" y="289" width="296" height="160" as="geometry" />
        </mxCell>
        <mxCell id="HdkrcDW3gAct7X6Tysw3-176" value="" style="fontStyle=0;dashed=1;html=1;whiteSpace=wrap;fontFamily=Helvetica;fontSize=11;fontColor=default;labelBackgroundColor=none;textOpacity=0;fillColor=none;" parent="HdkrcDW3gAct7X6Tysw3-174" vertex="1">
          <mxGeometry y="9.411764705882353" width="296" height="150.58823529411765" as="geometry" />
        </mxCell>
        <mxCell id="HdkrcDW3gAct7X6Tysw3-175" value="&amp;lt;&amp;lt;loop&amp;gt;&amp;gt;" style="text;html=1;align=center;verticalAlign=middle;resizable=0;points=[];autosize=1;strokeColor=none;fillColor=none;fontFamily=Helvetica;fontSize=8;fontColor=default;labelBackgroundColor=default;" parent="HdkrcDW3gAct7X6Tysw3-174" vertex="1">
          <mxGeometry x="244.99965517241378" y="6.590588235294117" width="60" height="20" as="geometry" />
        </mxCell>
        <mxCell id="HdkrcDW3gAct7X6Tysw3-32" value="Tag entfernen" style="rounded=1;whiteSpace=wrap;html=1;fontFamily=Helvetica;fontSize=11;fontColor=default;labelBackgroundColor=default;" parent="HdkrcDW3gAct7X6Tysw3-174" vertex="1">
          <mxGeometry x="26" y="65.6470588235294" width="98" height="40" as="geometry" />
        </mxCell>
        <mxCell id="HdkrcDW3gAct7X6Tysw3-38" value="Tag zuordnen" style="rounded=1;whiteSpace=wrap;html=1;fontFamily=Helvetica;fontSize=11;fontColor=default;labelBackgroundColor=default;" parent="HdkrcDW3gAct7X6Tysw3-174" vertex="1">
          <mxGeometry x="153.13" y="65.6470588235294" width="98" height="40" as="geometry" />
        </mxCell>
        <mxCell id="HdkrcDW3gAct7X6Tysw3-1" value="" style="ellipse;html=1;shape=startState;fillColor=#000000;strokeColor=#000000;" parent="1" vertex="1">
          <mxGeometry x="394.03" y="120" width="30" height="30" as="geometry" />
        </mxCell>
        <mxCell id="HdkrcDW3gAct7X6Tysw3-2" value="Tags Schicht&lt;span style=&quot;background-color: initial;&quot;&gt;&amp;nbsp;zuordnen&lt;/span&gt;" style="shape=umlFrame;whiteSpace=wrap;html=1;pointerEvents=0;width=140;height=20;align=left;" parent="1" vertex="1">
          <mxGeometry x="10" y="100" width="810" height="490" as="geometry" />
        </mxCell>
        <mxCell id="HdkrcDW3gAct7X6Tysw3-150" style="edgeStyle=orthogonalEdgeStyle;rounded=0;orthogonalLoop=1;jettySize=auto;html=1;strokeColor=default;align=center;verticalAlign=middle;fontFamily=Helvetica;fontSize=11;fontColor=default;labelBackgroundColor=default;endArrow=open;endFill=0;entryX=0.499;entryY=0.351;entryDx=0;entryDy=0;entryPerimeter=0;" parent="1" source="HdkrcDW3gAct7X6Tysw3-31" target="HdkrcDW3gAct7X6Tysw3-149" edge="1">
          <mxGeometry relative="1" as="geometry">
            <mxPoint x="308.5" y="322" as="targetPoint" />
          </mxGeometry>
        </mxCell>
        <mxCell id="HdkrcDW3gAct7X6Tysw3-31" value="Schicht auswÃ¤hlen" style="rounded=1;whiteSpace=wrap;html=1;fontFamily=Helvetica;fontSize=11;fontColor=default;labelBackgroundColor=default;" parent="1" vertex="1">
          <mxGeometry x="279" y="235" width="99" height="40" as="geometry" />
        </mxCell>
        <mxCell id="HdkrcDW3gAct7X6Tysw3-49" value="" style="ellipse;html=1;shape=endState;fillColor=#000000;strokeColor=#000000;fontFamily=Helvetica;fontSize=11;fontColor=default;labelBackgroundColor=default;" parent="1" vertex="1">
          <mxGeometry x="462.86" y="540" width="30" height="30" as="geometry" />
        </mxCell>
        <mxCell id="HdkrcDW3gAct7X6Tysw3-146" style="edgeStyle=orthogonalEdgeStyle;rounded=0;orthogonalLoop=1;jettySize=auto;html=1;exitX=0.375;exitY=0.644;exitDx=0;exitDy=0;exitPerimeter=0;entryX=0.5;entryY=0;entryDx=0;entryDy=0;strokeColor=default;align=center;verticalAlign=middle;fontFamily=Helvetica;fontSize=11;fontColor=default;labelBackgroundColor=default;endArrow=open;endFill=0;" parent="1" source="HdkrcDW3gAct7X6Tysw3-75" target="HdkrcDW3gAct7X6Tysw3-31" edge="1">
          <mxGeometry relative="1" as="geometry" />
        </mxCell>
        <mxCell id="H5eGW4Clu2Ia-MZKpD2z-4" style="edgeStyle=orthogonalEdgeStyle;rounded=0;orthogonalLoop=1;jettySize=auto;html=1;strokeColor=default;align=center;verticalAlign=middle;fontFamily=Helvetica;fontSize=11;fontColor=default;labelBackgroundColor=default;endArrow=open;endFill=0;entryX=0.499;entryY=0.47;entryDx=0;entryDy=0;entryPerimeter=0;" edge="1" parent="1" source="HdkrcDW3gAct7X6Tysw3-1" target="HdkrcDW3gAct7X6Tysw3-75">
          <mxGeometry relative="1" as="geometry" />
        </mxCell>
        <mxCell id="HdkrcDW3gAct7X6Tysw3-75" value="" style="shape=line;html=1;strokeWidth=6;strokeColor=#000000;fillColor=#000000;fontFamily=Helvetica;fontSize=11;fontColor=default;labelBackgroundColor=default;" parent="1" vertex="1">
          <mxGeometry x="78.05" y="190" width="661.95" height="13" as="geometry" />
        </mxCell>
        <mxCell id="HdkrcDW3gAct7X6Tysw3-124" style="edgeStyle=orthogonalEdgeStyle;rounded=0;orthogonalLoop=1;jettySize=auto;html=1;strokeColor=default;align=center;verticalAlign=middle;fontFamily=Helvetica;fontSize=11;fontColor=default;labelBackgroundColor=default;endArrow=open;endFill=0;" parent="1" target="HdkrcDW3gAct7X6Tysw3-81" edge="1">
          <mxGeometry relative="1" as="geometry">
            <mxPoint x="124" y="197" as="sourcePoint" />
            <Array as="points">
              <mxPoint x="124" y="200" />
            </Array>
          </mxGeometry>
        </mxCell>
        <mxCell id="HdkrcDW3gAct7X6Tysw3-126" value="" style="shape=sumEllipse;perimeter=ellipsePerimeter;html=1;backgroundOutline=1;fontFamily=Helvetica;fontSize=11;fontColor=default;labelBackgroundColor=default;" parent="1" vertex="1">
          <mxGeometry x="109.44" y="310" width="30" height="30" as="geometry" />
        </mxCell>
        <mxCell id="HdkrcDW3gAct7X6Tysw3-127" style="edgeStyle=orthogonalEdgeStyle;rounded=0;orthogonalLoop=1;jettySize=auto;html=1;entryX=0.5;entryY=0;entryDx=0;entryDy=0;strokeColor=default;align=center;verticalAlign=middle;fontFamily=Helvetica;fontSize=11;fontColor=default;labelBackgroundColor=default;endArrow=open;endFill=0;" parent="1" source="HdkrcDW3gAct7X6Tysw3-81" target="HdkrcDW3gAct7X6Tysw3-126" edge="1">
          <mxGeometry relative="1" as="geometry" />
        </mxCell>
        <mxCell id="H5eGW4Clu2Ia-MZKpD2z-1" style="edgeStyle=orthogonalEdgeStyle;rounded=0;orthogonalLoop=1;jettySize=auto;html=1;exitX=0.25;exitY=0.5;exitDx=0;exitDy=0;exitPerimeter=0;strokeColor=default;align=center;verticalAlign=middle;fontFamily=Helvetica;fontSize=11;fontColor=default;labelBackgroundColor=default;endArrow=open;endFill=0;" edge="1" parent="1" source="HdkrcDW3gAct7X6Tysw3-149" target="HdkrcDW3gAct7X6Tysw3-32">
          <mxGeometry relative="1" as="geometry" />
        </mxCell>
        <mxCell id="H5eGW4Clu2Ia-MZKpD2z-18" style="edgeStyle=orthogonalEdgeStyle;rounded=0;orthogonalLoop=1;jettySize=auto;html=1;exitX=0.75;exitY=0.5;exitDx=0;exitDy=0;exitPerimeter=0;entryX=0.5;entryY=0;entryDx=0;entryDy=0;strokeColor=default;align=center;verticalAlign=middle;fontFamily=Helvetica;fontSize=11;fontColor=default;labelBackgroundColor=default;endArrow=open;endFill=0;" edge="1" parent="1" source="HdkrcDW3gAct7X6Tysw3-149" target="HdkrcDW3gAct7X6Tysw3-38">
          <mxGeometry relative="1" as="geometry" />
        </mxCell>
        <mxCell id="HdkrcDW3gAct7X6Tysw3-149" value="" style="shape=line;html=1;strokeWidth=6;strokeColor=#000000;fillColor=#000000;fontFamily=Helvetica;fontSize=11;fontColor=default;labelBackgroundColor=default;" parent="1" vertex="1">
          <mxGeometry x="201.44" y="319" width="254.11" height="10" as="geometry" />
        </mxCell>
        <mxCell id="HdkrcDW3gAct7X6Tysw3-157" value="" style="shape=line;html=1;strokeWidth=6;strokeColor=#000000;fillColor=#000000;fontFamily=Helvetica;fontSize=11;fontColor=default;labelBackgroundColor=default;" parent="1" vertex="1">
          <mxGeometry x="200.94" y="429" width="254.11" height="10" as="geometry" />
        </mxCell>
        <mxCell id="HdkrcDW3gAct7X6Tysw3-158" style="edgeStyle=orthogonalEdgeStyle;rounded=0;orthogonalLoop=1;jettySize=auto;html=1;entryX=0.25;entryY=0.5;entryDx=0;entryDy=0;entryPerimeter=0;strokeColor=default;align=center;verticalAlign=middle;fontFamily=Helvetica;fontSize=11;fontColor=default;labelBackgroundColor=default;endArrow=open;endFill=0;exitX=0.5;exitY=1;exitDx=0;exitDy=0;" parent="1" source="HdkrcDW3gAct7X6Tysw3-32" target="HdkrcDW3gAct7X6Tysw3-157" edge="1">
          <mxGeometry relative="1" as="geometry">
            <mxPoint x="245" y="403" as="sourcePoint" />
            <mxPoint x="244.96749999999997" y="436" as="targetPoint" />
          </mxGeometry>
        </mxCell>
        <mxCell id="HdkrcDW3gAct7X6Tysw3-159" style="edgeStyle=orthogonalEdgeStyle;rounded=0;orthogonalLoop=1;jettySize=auto;html=1;entryX=0.75;entryY=0.5;entryDx=0;entryDy=0;entryPerimeter=0;strokeColor=default;align=center;verticalAlign=middle;fontFamily=Helvetica;fontSize=11;fontColor=default;labelBackgroundColor=default;endArrow=open;endFill=0;" parent="1" source="HdkrcDW3gAct7X6Tysw3-38" target="HdkrcDW3gAct7X6Tysw3-157" edge="1">
          <mxGeometry relative="1" as="geometry">
            <mxPoint x="372.02250000000004" y="436" as="targetPoint" />
            <Array as="points">
              <mxPoint x="392" y="434" />
            </Array>
          </mxGeometry>
        </mxCell>
        <mxCell id="HdkrcDW3gAct7X6Tysw3-137" value="&amp;lt;&amp;lt;loop&amp;gt;&amp;gt;" style="text;html=1;align=center;verticalAlign=middle;resizable=0;points=[];autosize=1;strokeColor=none;fillColor=none;fontFamily=Helvetica;fontSize=8;fontColor=default;labelBackgroundColor=default;" parent="1" vertex="1">
          <mxGeometry x="717" y="170" width="60" height="20" as="geometry" />
        </mxCell>
        <mxCell id="HdkrcDW3gAct7X6Tysw3-81" value="Tags&amp;nbsp;&lt;div&gt;bearbeiten&lt;/div&gt;" style="rounded=1;whiteSpace=wrap;html=1;fontFamily=Helvetica;fontSize=11;fontColor=default;labelBackgroundColor=default;" parent="1" vertex="1">
          <mxGeometry x="75.44" y="235" width="98" height="40" as="geometry" />
        </mxCell>
        <mxCell id="HdkrcDW3gAct7X6Tysw3-82" value="" style="strokeWidth=1;html=1;shape=mxgraph.flowchart.annotation_2;align=left;labelPosition=right;pointerEvents=1;rotation=90;fontFamily=Helvetica;fontSize=11;fontColor=default;labelBackgroundColor=default;" parent="1" vertex="1">
          <mxGeometry x="154.44" y="240" width="9" height="11" as="geometry" />
        </mxCell>
        <mxCell id="HdkrcDW3gAct7X6Tysw3-83" value="" style="endArrow=none;html=1;rounded=0;entryX=0.519;entryY=0.49;entryDx=0;entryDy=0;entryPerimeter=0;exitX=1;exitY=0.5;exitDx=0;exitDy=0;exitPerimeter=0;strokeWidth=1;strokeColor=default;align=center;verticalAlign=middle;fontFamily=Helvetica;fontSize=11;fontColor=default;labelBackgroundColor=default;edgeStyle=orthogonalEdgeStyle;" parent="1" source="HdkrcDW3gAct7X6Tysw3-82" target="HdkrcDW3gAct7X6Tysw3-82" edge="1">
          <mxGeometry width="50" height="50" relative="1" as="geometry">
            <mxPoint x="-457.56" y="352.5" as="sourcePoint" />
            <mxPoint x="-394.56" y="382.5" as="targetPoint" />
          </mxGeometry>
        </mxCell>
        <mxCell id="H5eGW4Clu2Ia-MZKpD2z-8" style="edgeStyle=orthogonalEdgeStyle;rounded=0;orthogonalLoop=1;jettySize=auto;html=1;entryX=0.5;entryY=0;entryDx=0;entryDy=0;strokeColor=default;align=center;verticalAlign=middle;fontFamily=Helvetica;fontSize=11;fontColor=default;labelBackgroundColor=default;endArrow=open;endFill=0;" edge="1" parent="1" source="H5eGW4Clu2Ia-MZKpD2z-3" target="H5eGW4Clu2Ia-MZKpD2z-6">
          <mxGeometry relative="1" as="geometry" />
        </mxCell>
        <mxCell id="H5eGW4Clu2Ia-MZKpD2z-3" value="Tag auswÃ¤hlen" style="rounded=1;whiteSpace=wrap;html=1;fontFamily=Helvetica;fontSize=11;fontColor=default;labelBackgroundColor=default;" vertex="1" parent="1">
          <mxGeometry x="563" y="235" width="99" height="40" as="geometry" />
        </mxCell>
        <mxCell id="H5eGW4Clu2Ia-MZKpD2z-5" style="edgeStyle=orthogonalEdgeStyle;rounded=0;orthogonalLoop=1;jettySize=auto;html=1;strokeColor=default;align=center;verticalAlign=middle;fontFamily=Helvetica;fontSize=11;fontColor=default;labelBackgroundColor=default;endArrow=open;endFill=0;exitX=0.808;exitY=0.598;exitDx=0;exitDy=0;exitPerimeter=0;" edge="1" parent="1" source="HdkrcDW3gAct7X6Tysw3-75" target="H5eGW4Clu2Ia-MZKpD2z-3">
          <mxGeometry relative="1" as="geometry" />
        </mxCell>
        <mxCell id="H5eGW4Clu2Ia-MZKpD2z-6" value="Schicht auswÃ¤hlen" style="rounded=1;whiteSpace=wrap;html=1;fontFamily=Helvetica;fontSize=11;fontColor=default;labelBackgroundColor=default;" vertex="1" parent="1">
          <mxGeometry x="563" y="315" width="99" height="40" as="geometry" />
        </mxCell>
        <mxCell id="H5eGW4Clu2Ia-MZKpD2z-10" style="edgeStyle=orthogonalEdgeStyle;rounded=0;orthogonalLoop=1;jettySize=auto;html=1;entryX=1;entryY=0.5;entryDx=0;entryDy=0;strokeColor=default;align=center;verticalAlign=middle;fontFamily=Helvetica;fontSize=11;fontColor=default;labelBackgroundColor=default;endArrow=open;endFill=0;" edge="1" parent="1" source="H5eGW4Clu2Ia-MZKpD2z-7" target="H5eGW4Clu2Ia-MZKpD2z-6">
          <mxGeometry relative="1" as="geometry">
            <Array as="points">
              <mxPoint x="700" y="415" />
              <mxPoint x="700" y="335" />
            </Array>
          </mxGeometry>
        </mxCell>
        <mxCell id="H5eGW4Clu2Ia-MZKpD2z-7" value="" style="rhombus;whiteSpace=wrap;html=1;fontFamily=Helvetica;fontSize=11;fontColor=default;labelBackgroundColor=default;" vertex="1" parent="1">
          <mxGeometry x="587.5" y="390" width="50" height="50" as="geometry" />
        </mxCell>
        <mxCell id="H5eGW4Clu2Ia-MZKpD2z-9" style="edgeStyle=orthogonalEdgeStyle;rounded=0;orthogonalLoop=1;jettySize=auto;html=1;strokeColor=default;align=center;verticalAlign=middle;fontFamily=Helvetica;fontSize=11;fontColor=default;labelBackgroundColor=default;endArrow=open;endFill=0;" edge="1" parent="1" source="H5eGW4Clu2Ia-MZKpD2z-6" target="H5eGW4Clu2Ia-MZKpD2z-7">
          <mxGeometry relative="1" as="geometry">
            <mxPoint x="612" y="400" as="targetPoint" />
          </mxGeometry>
        </mxCell>
        <mxCell id="H5eGW4Clu2Ia-MZKpD2z-12" value="[ja]" style="text;html=1;align=center;verticalAlign=middle;resizable=0;points=[];autosize=1;strokeColor=none;fillColor=none;fontFamily=Helvetica;fontSize=11;fontColor=default;labelBackgroundColor=default;" vertex="1" parent="1">
          <mxGeometry x="638" y="390" width="40" height="30" as="geometry" />
        </mxCell>
        <mxCell id="H5eGW4Clu2Ia-MZKpD2z-17" style="edgeStyle=orthogonalEdgeStyle;rounded=0;orthogonalLoop=1;jettySize=auto;html=1;entryX=0.5;entryY=0;entryDx=0;entryDy=0;strokeColor=default;align=center;verticalAlign=middle;fontFamily=Helvetica;fontSize=11;fontColor=default;labelBackgroundColor=default;endArrow=open;endFill=0;" edge="1" parent="1" source="H5eGW4Clu2Ia-MZKpD2z-13" target="HdkrcDW3gAct7X6Tysw3-49">
          <mxGeometry relative="1" as="geometry" />
        </mxCell>
        <mxCell id="H5eGW4Clu2Ia-MZKpD2z-13" value="" style="shape=line;html=1;strokeWidth=6;strokeColor=#000000;fillColor=#000000;fontFamily=Helvetica;fontSize=11;fontColor=default;labelBackgroundColor=default;" vertex="1" parent="1">
          <mxGeometry x="238.72" y="480" width="478.28" height="9.5" as="geometry" />
        </mxCell>
        <mxCell id="H5eGW4Clu2Ia-MZKpD2z-14" style="edgeStyle=orthogonalEdgeStyle;rounded=0;orthogonalLoop=1;jettySize=auto;html=1;entryX=0.781;entryY=0.312;entryDx=0;entryDy=0;entryPerimeter=0;strokeColor=default;align=center;verticalAlign=middle;fontFamily=Helvetica;fontSize=11;fontColor=default;labelBackgroundColor=default;endArrow=open;endFill=0;" edge="1" parent="1" source="H5eGW4Clu2Ia-MZKpD2z-7" target="H5eGW4Clu2Ia-MZKpD2z-13">
          <mxGeometry relative="1" as="geometry">
            <Array as="points" />
          </mxGeometry>
        </mxCell>
        <mxCell id="H5eGW4Clu2Ia-MZKpD2z-16" style="edgeStyle=orthogonalEdgeStyle;rounded=0;orthogonalLoop=1;jettySize=auto;html=1;strokeColor=default;align=center;verticalAlign=middle;fontFamily=Helvetica;fontSize=11;fontColor=default;labelBackgroundColor=default;endArrow=open;endFill=0;entryX=0.186;entryY=0.201;entryDx=0;entryDy=0;entryPerimeter=0;" edge="1" parent="1" source="HdkrcDW3gAct7X6Tysw3-157" target="H5eGW4Clu2Ia-MZKpD2z-13">
          <mxGeometry relative="1" as="geometry">
            <mxPoint x="330" y="480" as="targetPoint" />
          </mxGeometry>
        </mxCell>
      </root>
    </mxGraphModel>
  </diagram>
</mxfile>
